<svg width="24" height="25" viewBox="0 0 24 25" fill="none" xmlns="http://www.w3.org/2000/svg">
<mask id="mask0_11_721" style="mask-type:alpha" maskUnits="userSpaceOnUse" x="0" y="0" width="24" height="25">
<rect y="0.5" width="24" height="24" fill="black"/>
</mask>
<g mask="url(#mask0_11_721)">
<path d="M7.8248 13.5L12.7248 18.4C12.9248 18.6 13.0206 18.8334 13.0123 19.1C13.004 19.3667 12.8998 19.6 12.6998 19.8C12.4998 19.9834 12.2665 20.0792 11.9998 20.0875C11.7331 20.0959 11.4998 20 11.2998 19.8L4.6998 13.2C4.5998 13.1 4.52897 12.9917 4.4873 12.875C4.44564 12.7584 4.4248 12.6334 4.4248 12.5C4.4248 12.3667 4.44564 12.2417 4.4873 12.125C4.52897 12.0084 4.5998 11.9 4.6998 11.8L11.2998 5.20005C11.4831 5.01672 11.7123 4.92505 11.9873 4.92505C12.2623 4.92505 12.4998 5.01672 12.6998 5.20005C12.8998 5.40005 12.9998 5.63755 12.9998 5.91255C12.9998 6.18755 12.8998 6.42505 12.6998 6.62505L7.8248 11.5H18.9998C19.2831 11.5 19.5206 11.5959 19.7123 11.7875C19.904 11.9792 19.9998 12.2167 19.9998 12.5C19.9998 12.7834 19.904 13.0209 19.7123 13.2125C19.5206 13.4042 19.2831 13.5 18.9998 13.5H7.8248Z" fill="black"/>
</g>
</svg>
