<svg width="26" height="23" viewBox="0 0 26 23" fill="none" xmlns="http://www.w3.org/2000/svg">
<path d="M7.57769 20.9362H18.4223C19.5708 20.9362 20.548 20.0996 20.7211 18.9647C20.9988 17.163 21.064 15.3356 20.9148 13.5202H23.0114C23.1649 13.5201 23.3156 13.4789 23.4477 13.4007C23.5798 13.3225 23.6885 13.2103 23.7624 13.0758C23.8364 12.9413 23.8728 12.7894 23.8679 12.6359C23.8631 12.4825 23.8171 12.3332 23.7348 12.2036L23.3714 11.6327C21.1887 8.19492 18.411 5.17344 15.1685 2.70989L14.0371 1.85275C13.7389 1.62612 13.3746 1.50342 13 1.50342C12.6254 1.50342 12.2611 1.62612 11.9628 1.85275L10.8314 2.70989C7.58877 5.17395 4.81108 8.19603 2.62855 11.6345L2.26512 12.2053C2.18284 12.3349 2.13687 12.4842 2.13202 12.6376C2.12717 12.7911 2.1636 12.943 2.23753 13.0775C2.31145 13.2121 2.42014 13.3243 2.55226 13.4024C2.68437 13.4806 2.83504 13.5219 2.98855 13.5219H5.08683C4.93784 15.338 5.00228 17.1653 5.27883 18.9665C5.45369 20.1013 6.42912 20.9379 7.57598 20.9379L7.57769 20.9362Z" stroke="url(#paint0_linear_9_1010)" stroke-width="3" stroke-linecap="round" stroke-linejoin="round"/>
<path d="M13 12.8667C14.5771 12.8667 15.8577 14.1456 15.8577 15.7244V20.9358H10.1406V15.7244C10.1406 14.1473 11.4211 12.8667 13 12.8667Z" stroke="url(#paint1_linear_9_1010)" stroke-width="3" stroke-linecap="round" stroke-linejoin="round"/>
<defs>
<linearGradient id="paint0_linear_9_1010" x1="13" y1="1.50342" x2="13" y2="20.9379" gradientUnits="userSpaceOnUse">
<stop stop-color="#CAB4FF"/>
<stop offset="1" stop-color="#9064F8"/>
</linearGradient>
<linearGradient id="paint1_linear_9_1010" x1="12.9991" y1="12.8667" x2="12.9991" y2="20.9358" gradientUnits="userSpaceOnUse">
<stop stop-color="#CAB4FF"/>
<stop offset="1" stop-color="#9064F8"/>
</linearGradient>
</defs>
</svg>
