<svg width="82" height="46" viewBox="0 0 82 46" fill="none" xmlns="http://www.w3.org/2000/svg">
<g filter="url(#filter0_d_12_3436)">
<circle cx="23" cy="19" r="19" fill="white"/>
</g>
<path d="M19.2 18.6859C21.3001 18.6859 23 16.9861 23 14.8859C23 12.7858 21.3001 11.0859 19.2 11.0859C17.0998 11.0859 15.4 12.7858 15.4 14.8859C15.4 16.9861 17.0998 18.6859 19.2 18.6859ZM21.8057 19.7717H21.5241C20.8183 20.1109 20.0346 20.3145 19.2 20.3145C18.3653 20.3145 17.585 20.1109 16.8758 19.7717H16.5942C14.4364 19.7717 12.6857 21.5224 12.6857 23.6802V24.6574C12.6857 25.5565 13.4151 26.2859 14.3142 26.2859H24.0857C24.9848 26.2859 25.7142 25.5565 25.7142 24.6574V23.6802C25.7142 21.5224 23.9635 19.7717 21.8057 19.7717ZM28.9714 18.6859C30.7696 18.6859 32.2285 17.227 32.2285 15.4288C32.2285 13.6306 30.7696 12.1717 28.9714 12.1717C27.1732 12.1717 25.7142 13.6306 25.7142 15.4288C25.7142 17.227 27.1732 18.6859 28.9714 18.6859ZM30.6 19.7717H30.471C29.9994 19.9345 29.5007 20.0431 28.9714 20.0431C28.4421 20.0431 27.9433 19.9345 27.4717 19.7717H27.3428C26.6507 19.7717 26.0128 19.9718 25.453 20.2942C26.2808 21.1865 26.8 22.3706 26.8 23.6802V24.9831C26.8 25.0577 26.783 25.129 26.7796 25.2002H32.7714C33.6705 25.2002 34.4 24.4708 34.4 23.5717C34.4 21.4715 32.7001 19.7717 30.6 19.7717Z" fill="#5E5E5E"/>
<path d="M62.3047 13.4609V21.2305H60.9922V13.4609H62.3047ZM62.5977 22.7773V23.832H55.2969V20.5273H56.6094V22.7773H62.5977ZM57.5 15.9219C57.5 17.1758 58.4141 18.3711 60.1016 18.8516L59.4805 19.8828C58.2441 19.5195 57.3594 18.7695 56.8789 17.8086C56.3984 18.8516 55.502 19.6719 54.2422 20.0586L53.6094 19.0391C55.3086 18.5234 56.1992 17.2578 56.1992 15.9219V15.7812H53.9375V14.75H56.1992V13.5078H57.5117V14.75H59.7617V15.7812H57.5V15.9219ZM72.3242 14.0938V15.043C72.3242 16.0332 72.3242 17.1172 72.043 18.6172H73.5078V19.6719H69.3008V24.0547H67.9883V19.6719H63.8516V18.6172H70.7188C71.0117 17.1758 71.0234 16.0977 71.0234 15.1484H64.9883V14.0938H72.3242Z" fill="#454545"/>
<defs>
<filter id="filter0_d_12_3436" x="0" y="0" width="46" height="46" filterUnits="userSpaceOnUse" color-interpolation-filters="sRGB">
<feFlood flood-opacity="0" result="BackgroundImageFix"/>
<feColorMatrix in="SourceAlpha" type="matrix" values="0 0 0 0 0 0 0 0 0 0 0 0 0 0 0 0 0 0 127 0" result="hardAlpha"/>
<feOffset dy="4"/>
<feGaussianBlur stdDeviation="2"/>
<feComposite in2="hardAlpha" operator="out"/>
<feColorMatrix type="matrix" values="0 0 0 0 0 0 0 0 0 0 0 0 0 0 0 0 0 0 0.25 0"/>
<feBlend mode="normal" in2="BackgroundImageFix" result="effect1_dropShadow_12_3436"/>
<feBlend mode="normal" in="SourceGraphic" in2="effect1_dropShadow_12_3436" result="shape"/>
</filter>
</defs>
</svg>
