<svg width="24" height="22" viewBox="0 0 24 22" fill="none" xmlns="http://www.w3.org/2000/svg">
<path d="M6.80365 20.5221H17.1964C18.2971 20.5221 19.2335 19.7204 19.3994 18.6328C19.6656 16.9062 19.728 15.1549 19.5851 13.4151H21.5943C21.7414 13.4151 21.8858 13.3755 22.0124 13.3006C22.139 13.2257 22.2432 13.1182 22.314 12.9893C22.3849 12.8603 22.4198 12.7147 22.4151 12.5677C22.4105 12.4207 22.3664 12.2776 22.2876 12.1534L21.9393 11.6063C19.8475 8.31174 17.1856 5.41615 14.0782 3.05525L12.9939 2.23382C12.7081 2.01663 12.359 1.89905 12 1.89905C11.641 1.89905 11.2919 2.01663 11.0061 2.23382L9.92179 3.05525C6.81427 5.41664 4.15232 8.3128 2.06072 11.608L1.71244 12.155C1.63359 12.2792 1.58953 12.4223 1.58488 12.5693C1.58023 12.7164 1.61515 12.862 1.68599 12.9909C1.75684 13.1198 1.861 13.2274 1.98761 13.3023C2.11421 13.3772 2.25861 13.4167 2.40572 13.4167H4.41658C4.2738 15.1572 4.33555 16.9084 4.60058 18.6345C4.76815 19.722 5.70294 20.5238 6.80201 20.5238L6.80365 20.5221Z" stroke="#DBDBDB" stroke-width="2" stroke-linecap="round" stroke-linejoin="round"/>
<path d="M12.0001 12.7891C13.5115 12.7891 14.7387 14.0146 14.7387 15.5277V20.522H9.25977V15.5277C9.25977 14.0163 10.487 12.7891 12.0001 12.7891Z" stroke="#DBDBDB" stroke-width="2" stroke-linecap="round" stroke-linejoin="round"/>
</svg>
