<svg width="30" height="30" viewBox="0 0 30 30" fill="none" xmlns="http://www.w3.org/2000/svg">
<mask id="mask0_62_564" style="mask-type:alpha" maskUnits="userSpaceOnUse" x="0" y="0" width="30" height="30">
<rect x="0.5" y="0.5" width="29" height="29" fill="#D9D9D9" stroke="#535694"/>
</mask>
<g mask="url(#mask0_62_564)">
<path d="M21.985 14.52C22.0927 12.6582 21.6194 10.8088 20.6305 9.22768C19.6416 7.64652 18.186 6.4116 16.4648 5.69365C14.7436 4.9757 12.8418 4.81017 11.0225 5.21995C9.20311 5.62972 7.55598 6.59456 6.30877 7.98109C5.06156 9.36762 4.27587 11.1073 4.06032 12.9598C3.84478 14.8122 4.21001 16.6859 5.10554 18.3217C6.00107 19.9576 7.38266 21.2748 9.05932 22.0914C10.736 22.908 12.6249 23.1835 14.465 22.88M4.59998 11H21.4M4.59998 17H15.5" stroke="#DBDBDB" stroke-width="2" stroke-linecap="round" stroke-linejoin="round"/>
<path d="M12.5778 5C10.8931 7.69961 10 10.8179 10 14C10 17.1821 10.8931 20.3004 12.5778 23M13.5778 5C15.8908 8.706 16.6478 12.856 15.8478 17M20.0778 18L18.0778 21H22.0778L20.0778 24" stroke="#DBDBDB" stroke-width="2" stroke-linecap="round" stroke-linejoin="round"/>
<rect x="17" y="16" width="9" height="10" rx="4.5" fill="white"/>
<path fill-rule="evenodd" clip-rule="evenodd" d="M17.586 17.586C17 18.1715 17 19.1145 17 21C17 22.8855 17 23.8285 17.586 24.414C18.172 24.9995 19.1145 25 21 25H23C24.8855 25 25.8285 25 26.414 24.414C26.9995 23.828 27 22.8855 27 21C27 19.1145 27 18.1715 26.414 17.586C25.828 17.0005 24.8855 17 23 17H21C19.1145 17 18.1715 17 17.586 17.586ZM25.288 18.76C25.3516 18.8364 25.3823 18.9349 25.3733 19.0339C25.3643 19.1329 25.3164 19.2243 25.24 19.288L24.142 20.203C23.6985 20.573 23.3395 20.872 23.022 21.076C22.692 21.2885 22.3705 21.4225 22 21.4225C21.6295 21.4225 21.308 21.288 20.9775 21.076C20.6605 20.872 20.3015 20.5725 19.858 20.2035L18.76 19.2885C18.6836 19.2248 18.6355 19.1334 18.6265 19.0344C18.6174 18.9353 18.6481 18.8367 18.7118 18.7603C18.7754 18.6838 18.8668 18.6358 18.9659 18.6267C19.0649 18.6177 19.1636 18.6483 19.24 18.712L20.32 19.6115C20.7865 20 21.11 20.269 21.384 20.445C21.6485 20.615 21.828 20.6725 22.0005 20.6725C22.173 20.6725 22.3525 20.6155 22.617 20.445C22.8905 20.269 23.2145 20 23.681 19.6115L24.7605 18.7115C24.837 18.6479 24.9355 18.6173 25.0345 18.6264C25.1336 18.6355 25.2244 18.6836 25.288 18.76Z" fill="#DBDBDB"/>
</g>
</svg>
