<svg width="82" height="46" viewBox="0 0 82 46" fill="none" xmlns="http://www.w3.org/2000/svg">
<g filter="url(#filter0_d_12_3437)">
<circle cx="23" cy="19" r="19" fill="white"/>
<path d="M23 8.68555H22.9751C17.279 8.68555 12.6608 13.3038 12.6608 18.9998C12.6608 24.6959 17.279 29.3141 22.9751 29.3141H23C28.696 29.3141 33.3143 24.6959 33.3143 18.9998C33.3143 13.3038 28.696 8.68555 23 8.68555ZM23 28.489H22.9751C17.7345 28.489 13.4859 24.2403 13.4859 18.9998C13.4859 13.7593 17.7345 9.51069 22.9751 9.51069H23C28.2405 9.51069 32.4891 13.7593 32.4891 18.9998C32.4891 24.2403 28.2405 28.489 23 28.489Z" fill="#5E5E5E"/>
<path d="M26.2876 14.8244C25.4367 15.0393 24.4517 15.1786 23.4391 15.2112L23.4168 15.2121V18.5892H26.7689C26.7485 17.2802 26.5787 15.9779 26.2627 14.7075L26.2876 14.8244ZM23.4116 10.3962V14.4574C24.3417 14.4302 25.2663 14.3042 26.1699 14.0818L26.0796 14.1007C25.4298 12.0465 24.4181 10.6987 23.4116 10.3962ZM19.8962 14.0956C20.6921 14.295 21.6152 14.4256 22.5624 14.4566L22.5839 14.4574V10.3867C21.5774 10.679 20.5503 12.0284 19.8962 14.0956ZM29.1782 12.9197C28.0557 11.7726 26.6356 10.9612 25.0774 10.5767L25.0181 10.5646C25.8467 11.5109 26.4529 12.6308 26.7922 13.842L26.8059 13.9013C27.6523 13.6472 28.4702 13.3068 29.247 12.8854L29.1782 12.9197ZM27.527 18.5892H31.6579C31.5742 16.7189 30.8822 14.9271 29.687 13.4862L29.6982 13.5008C28.9332 13.9323 28.0453 14.3156 27.1153 14.6053L27.0165 14.6319C27.3199 15.8138 27.5047 17.1744 27.5262 18.5754L27.527 18.5892ZM19.206 18.5892H22.5874V15.2121C21.578 15.1835 20.5748 15.0451 19.5954 14.7995L19.6916 14.8201C19.3846 16.0491 19.2216 17.3096 19.206 18.5763V18.5892ZM26.7689 19.4117H23.4116V22.7811C24.4465 22.8111 25.4341 22.9504 26.383 23.1885L26.2885 23.1687C26.5738 22.047 26.7475 20.7552 26.7689 19.4263V19.4117ZM19.6925 23.1756C20.552 22.9564 21.5456 22.8146 22.5676 22.7845L22.5882 22.7836V19.4143H19.206C19.2258 20.7586 19.402 22.0522 19.7166 23.2907L19.6925 23.1756ZM22.5891 27.609V23.5374C21.6178 23.5692 20.6938 23.699 19.8042 23.9182L19.8962 23.8993C20.5511 25.9673 21.5774 27.3193 22.5891 27.609ZM25.0181 27.4354C26.5994 27.0534 28.042 26.236 29.1825 25.076L29.1842 25.0743C28.4583 24.6812 27.6953 24.3608 26.9065 24.1176L26.8136 24.0927C26.4734 25.3319 25.8569 26.4779 25.0104 27.4448L25.0181 27.4354ZM20.9517 10.575C19.3837 10.9588 17.9537 11.7723 16.8225 12.924L16.8208 12.9258C17.4869 13.2902 18.2631 13.6202 19.0745 13.8729L19.1665 13.8979C19.5065 12.6669 20.1193 11.5282 20.9594 10.5664L20.9508 10.5758L20.9517 10.575ZM27.0165 23.369C28.0471 23.6827 28.9375 24.0669 29.7738 24.5353L29.7042 24.4992C30.89 23.0672 31.5773 21.288 31.6622 19.4306L31.6631 19.4109H27.5322C27.5078 20.788 27.3258 22.1578 26.9898 23.4936L27.0165 23.369ZM23.4116 23.5374V27.603C24.4181 27.3004 25.4298 25.9527 26.0796 23.8941C25.2118 23.6826 24.3242 23.563 23.4314 23.5374H23.4116ZM18.9636 14.6259C18.0134 14.3398 17.0974 13.9504 16.232 13.4647L16.2999 13.4999C15.1142 14.932 14.4269 16.7112 14.3419 18.5685L14.3411 18.5883H18.4513C18.4711 17.1727 18.6568 15.8095 18.9894 14.5047L18.9636 14.6259ZM18.447 19.4117H14.3368C14.4288 21.3594 15.1533 23.1214 16.3077 24.5147L16.2965 24.5001C17.0555 24.0712 17.9382 23.6896 18.8613 23.4008L18.9593 23.3741C18.6389 22.0826 18.4673 20.7586 18.4479 19.428L18.447 19.4117ZM16.8165 25.0743C17.9333 26.2148 19.344 27.024 20.8924 27.4122L20.9517 27.4251C20.1246 26.4814 19.5188 25.3649 19.1785 24.1571L19.1639 24.097C18.3263 24.3541 17.5162 24.6933 16.7452 25.1095L16.8165 25.0743Z" fill="#5E5E5E"/>
</g>
<path d="M58.25 20.0703C60.5469 20.082 62 20.8086 62.0117 22.0625C62 23.293 60.5469 24.0312 58.25 24.0312C55.9648 24.0312 54.5 23.293 54.5 22.0625C54.5 20.8086 55.9648 20.082 58.25 20.0703ZM58.25 21.0547C56.7266 21.0547 55.8008 21.418 55.8125 22.0625C55.8008 22.6836 56.7266 23.0234 58.25 23.0234C59.7852 23.0234 60.7109 22.6836 60.7227 22.0625C60.7109 21.418 59.7852 21.0547 58.25 21.0547ZM61.9414 13.9531V14.832C61.9414 15.6641 61.9414 16.5547 61.6484 17.6445L60.3594 17.5273C60.623 16.4961 60.6406 15.752 60.6406 14.9844H54.6055V13.9531H61.9414ZM63.1133 18.2539V19.3086H53.5039V18.2539H57.2305V16.332H58.5195V18.2539H63.1133ZM72.9453 13.4492V24.043H71.6914V18.6055H70.5547V23.5508H69.3359V13.7305H70.5547V17.5508H71.6914V13.4492H72.9453ZM68.4336 14.7852C68.4336 17.6445 67.5312 20.1055 64.5195 21.8281L63.7695 20.9258C66.0254 19.6191 66.9805 17.9434 67.168 15.8281H64.2617V14.7852H68.4336Z" fill="#454545"/>
<defs>
<filter id="filter0_d_12_3437" x="0" y="0" width="46" height="46" filterUnits="userSpaceOnUse" color-interpolation-filters="sRGB">
<feFlood flood-opacity="0" result="BackgroundImageFix"/>
<feColorMatrix in="SourceAlpha" type="matrix" values="0 0 0 0 0 0 0 0 0 0 0 0 0 0 0 0 0 0 127 0" result="hardAlpha"/>
<feOffset dy="4"/>
<feGaussianBlur stdDeviation="2"/>
<feComposite in2="hardAlpha" operator="out"/>
<feColorMatrix type="matrix" values="0 0 0 0 0 0 0 0 0 0 0 0 0 0 0 0 0 0 0.25 0"/>
<feBlend mode="normal" in2="BackgroundImageFix" result="effect1_dropShadow_12_3437"/>
<feBlend mode="normal" in="SourceGraphic" in2="effect1_dropShadow_12_3437" result="shape"/>
</filter>
</defs>
</svg>
