<svg width="25" height="23" viewBox="0 0 25 23" fill="none" xmlns="http://www.w3.org/2000/svg">
<path d="M18.985 10.52C19.0927 8.65815 18.6194 6.80884 17.6305 5.22768C16.6416 3.64652 15.186 2.4116 13.4648 1.69365C11.7436 0.975703 9.84184 0.810174 8.02248 1.21995C6.20311 1.62972 4.55598 2.59456 3.30877 3.98109C2.06156 5.36762 1.27587 7.10735 1.06032 8.95979C0.844776 10.8122 1.21001 12.6859 2.10554 14.3217C3.00107 15.9576 4.38266 17.2748 6.05932 18.0914C7.73599 18.908 9.62491 19.1835 11.465 18.88M1.59998 6.99997H18.4M1.59998 13H12.5" stroke="url(#paint0_linear_9_973)" stroke-width="2" stroke-linecap="round" stroke-linejoin="round"/>
<path d="M9.5778 1C7.89314 3.69961 7 6.81787 7 10C7 13.1821 7.89314 16.3004 9.5778 19M10.5778 1C12.8908 4.706 13.6478 8.856 12.8478 13M17.0778 14L15.0778 17H19.0778L17.0778 20" stroke="url(#paint1_linear_9_973)" stroke-width="2" stroke-linecap="round" stroke-linejoin="round"/>
<rect x="14" y="12" width="9" height="10" rx="4.5" fill="white"/>
<path fill-rule="evenodd" clip-rule="evenodd" d="M14.586 13.586C14 14.1715 14 15.1145 14 17C14 18.8855 14 19.8285 14.586 20.414C15.172 20.9995 16.1145 21 18 21H20C21.8855 21 22.8285 21 23.414 20.414C23.9995 19.828 24 18.8855 24 17C24 15.1145 24 14.1715 23.414 13.586C22.828 13.0005 21.8855 13 20 13H18C16.1145 13 15.1715 13 14.586 13.586ZM22.288 14.76C22.3516 14.8364 22.3823 14.9349 22.3733 15.0339C22.3643 15.1329 22.3164 15.2243 22.24 15.288L21.142 16.203C20.6985 16.573 20.3395 16.872 20.022 17.076C19.692 17.2885 19.3705 17.4225 19 17.4225C18.6295 17.4225 18.308 17.288 17.9775 17.076C17.6605 16.872 17.3015 16.5725 16.858 16.2035L15.76 15.2885C15.6836 15.2248 15.6355 15.1334 15.6265 15.0344C15.6174 14.9353 15.6481 14.8367 15.7118 14.7603C15.7754 14.6838 15.8668 14.6358 15.9659 14.6267C16.0649 14.6177 16.1636 14.6483 16.24 14.712L17.32 15.6115C17.7865 16 18.11 16.269 18.384 16.445C18.6485 16.615 18.828 16.6725 19.0005 16.6725C19.173 16.6725 19.3525 16.6155 19.617 16.445C19.8905 16.269 20.2145 16 20.681 15.6115L21.7605 14.7115C21.837 14.6479 21.9355 14.6173 22.0345 14.6264C22.1336 14.6355 22.2244 14.6836 22.288 14.76Z" fill="url(#paint2_linear_9_973)"/>
<defs>
<linearGradient id="paint0_linear_9_973" x1="10" y1="1" x2="10" y2="19" gradientUnits="userSpaceOnUse">
<stop stop-color="#CAB4FF"/>
<stop offset="1" stop-color="#9064F8"/>
</linearGradient>
<linearGradient id="paint1_linear_9_973" x1="13.0389" y1="1" x2="13.0389" y2="20" gradientUnits="userSpaceOnUse">
<stop stop-color="#CAB4FF"/>
<stop offset="1" stop-color="#9064F8"/>
</linearGradient>
<linearGradient id="paint2_linear_9_973" x1="19" y1="13" x2="19" y2="21" gradientUnits="userSpaceOnUse">
<stop stop-color="#CAB4FF"/>
<stop offset="1" stop-color="#9064F8"/>
</linearGradient>
</defs>
</svg>
