<svg width="28" height="28" viewBox="0 0 28 28" fill="none" xmlns="http://www.w3.org/2000/svg">
<path d="M7.4375 9.62337V6.08837C7.4375 5.83462 7.5425 5.58962 7.7175 5.41462L8.3125 4.82837L8.9075 5.41462C9.0825 5.58962 9.1875 5.83462 9.1875 6.08837V9.62337H7.4375ZM13.125 9.62337V6.08837C13.125 5.83462 13.23 5.58962 13.405 5.41462L14 4.82837L14.595 5.41462C14.77 5.58962 14.875 5.83462 14.875 6.08837V9.62337H13.125ZM18.8125 6.08837V9.62337H20.5625V6.08837C20.5625 5.83462 20.4663 5.58962 20.2825 5.41462L19.6875 4.82837L19.0925 5.41462C18.9175 5.58962 18.8125 5.83462 18.8125 6.08837Z" fill="#26EAFC"/>
<path d="M9.43238 3.26205L8.64488 1.9408C8.60981 1.88284 8.56038 1.83491 8.50136 1.80164C8.44235 1.76838 8.37575 1.7509 8.30801 1.7509C8.24026 1.7509 8.17366 1.76838 8.11465 1.80164C8.05564 1.83491 8.0062 1.88284 7.97113 1.9408L7.19238 3.26205C7.04363 3.50705 6.97363 3.7958 7.00863 4.10205C7.07863 4.7058 7.55988 5.18705 8.16363 5.2483C8.95113 5.3358 9.62488 4.7233 9.62488 3.94455C9.61667 3.70486 9.55063 3.47071 9.43238 3.26205ZM15.1199 3.26205L14.3411 1.9408C14.3061 1.88284 14.2566 1.83491 14.1976 1.80164C14.1386 1.76838 14.072 1.7509 14.0043 1.7509C13.9365 1.7509 13.8699 1.76838 13.8109 1.80164C13.7519 1.83491 13.7025 1.88284 13.6674 1.9408L12.8886 3.26205C12.7399 3.4983 12.6699 3.7958 12.7049 4.10205C12.7749 4.69705 13.2561 5.1783 13.8599 5.2483C14.6474 5.3358 15.3211 4.7233 15.3211 3.94455C15.3124 3.69955 15.2424 3.4633 15.1199 3.26205ZM20.0286 1.9408L20.8074 3.26205C20.9299 3.4633 20.9999 3.69955 20.9999 3.94455C20.9999 4.7233 20.3349 5.3358 19.5386 5.2483C18.9436 5.18705 18.4624 4.7058 18.3924 4.10205C18.3574 3.7958 18.4274 3.4983 18.5761 3.26205L19.3549 1.9408C19.5036 1.68705 19.8799 1.68705 20.0286 1.9408Z" fill="#FCD53F"/>
<path d="M8.3126 2.74487L8.84635 3.42737C8.93077 3.51487 8.99242 3.62176 9.02589 3.73864C9.05936 3.85553 9.06364 3.97884 9.03833 4.09776C9.01303 4.21668 8.95893 4.32758 8.88077 4.42071C8.80261 4.51384 8.70279 4.58637 8.59006 4.63192C8.47733 4.67748 8.35515 4.69467 8.23423 4.68198C8.1133 4.6693 7.99735 4.62713 7.89653 4.55918C7.7957 4.49122 7.7131 4.39956 7.65597 4.29224C7.59884 4.18491 7.56892 4.06521 7.56885 3.94362C7.56885 3.74237 7.6476 3.56737 7.77885 3.42737L8.3126 2.74487ZM14.5338 3.42737L14.0001 2.74487L13.4663 3.43612C13.3814 3.52361 13.3194 3.63063 13.2855 3.74775C13.2517 3.86488 13.2472 3.98852 13.2724 4.1078C13.2976 4.22708 13.3517 4.33833 13.43 4.43177C13.5083 4.52521 13.6084 4.59797 13.7214 4.64365C13.8345 4.68932 13.957 4.70651 14.0782 4.69371C14.1995 4.6809 14.3157 4.63849 14.4167 4.57021C14.5177 4.50193 14.6003 4.40987 14.6574 4.30213C14.7144 4.19439 14.7441 4.07428 14.7438 3.95237C14.7438 3.74237 14.6651 3.56737 14.5338 3.42737ZM20.2213 3.42737L19.6876 2.74487L19.1538 3.43612C19.0689 3.52361 19.0069 3.63063 18.973 3.74775C18.9392 3.86488 18.9347 3.98852 18.9599 4.1078C18.9851 4.22708 19.0392 4.33833 19.1175 4.43177C19.1958 4.52521 19.2959 4.59797 19.4089 4.64365C19.522 4.68932 19.6445 4.70651 19.7657 4.69371C19.887 4.6809 20.0032 4.63849 20.1042 4.57021C20.2052 4.50193 20.2878 4.40987 20.3449 4.30213C20.4019 4.19439 20.4316 4.07428 20.4313 3.95237C20.4313 3.74237 20.3526 3.56737 20.2213 3.42737Z" fill="#FFB02E"/>
<path d="M24.2812 26.2483H3.71875C3.115 26.2483 2.625 25.7583 2.625 25.1545V13.1233H25.375V25.1545C25.375 25.7583 24.885 26.2483 24.2812 26.2483Z" fill="#D3883E"/>
<path d="M1.75 10.5C1.75 9.80381 2.02656 9.13613 2.51884 8.64384C3.01113 8.15156 3.67881 7.875 4.375 7.875H23.6338C24.3299 7.875 24.9976 8.15156 25.4899 8.64384C25.9822 9.13613 26.2588 9.80381 26.2588 10.5V15.3624C26.2588 16.0799 25.3488 16.4124 24.8938 15.8524C24.4475 15.3011 23.6425 15.2136 23.0912 15.6511L22.8813 15.8174C22.2649 16.2977 21.5058 16.5586 20.7244 16.5586C19.9429 16.5586 19.1839 16.2977 18.5675 15.8174L18.165 15.5024C17.6925 15.1349 17.0363 15.1349 16.5638 15.5024L16.1612 15.8174C15.5449 16.2977 14.7858 16.5586 14.0044 16.5586C13.2229 16.5586 12.4639 16.2977 11.8475 15.8174L11.445 15.5024C10.9725 15.1349 10.3162 15.1349 9.84375 15.5024L9.44125 15.8174C8.82489 16.2977 8.06581 16.5586 7.28437 16.5586C6.50294 16.5586 5.74386 16.2977 5.1275 15.8174L4.9175 15.6511C4.36625 15.2224 3.56125 15.3099 3.115 15.8524C2.65125 16.4036 1.75 16.0799 1.75 15.3624V10.5ZM2.625 19.2474H25.375V20.9974H2.625V19.2474Z" fill="#FFDEA7"/>
<path d="M13.2563 9.75625C13.0812 9.93125 13.0812 10.2025 13.2563 10.3775L13.9038 11.025C14.0788 11.2 14.35 11.2 14.525 11.025C14.7 10.85 14.7 10.5788 14.525 10.4038L13.8775 9.75625C13.7025 9.58125 13.4225 9.58125 13.2563 9.75625Z" fill="#00A6ED"/>
<path d="M5.99731 9.75281C5.91516 9.67066 5.80374 9.62451 5.68756 9.62451C5.57139 9.62451 5.45997 9.67066 5.37781 9.75281C5.29566 9.83496 5.24951 9.94639 5.24951 10.0626C5.24951 10.1787 5.29566 10.2902 5.37781 10.3723L6.25281 11.2473C6.33497 11.3295 6.44639 11.3756 6.56256 11.3756C6.67874 11.3756 6.79016 11.3295 6.87231 11.2473C6.95447 11.1652 7.00062 11.0537 7.00062 10.9376C7.00062 10.8214 6.95447 10.71 6.87231 10.6278L5.99731 9.75281ZM17.3723 12.3778C17.2902 12.2957 17.1787 12.2495 17.0626 12.2495C16.9464 12.2495 16.835 12.2957 16.7528 12.3778C16.6707 12.46 16.6245 12.5714 16.6245 12.6876C16.6245 12.8037 16.6707 12.9152 16.7528 12.9973L17.6278 13.8723C17.71 13.9545 17.8214 14.0006 17.9376 14.0006C18.0537 14.0006 18.1652 13.9545 18.2473 13.8723C18.3295 13.7902 18.3756 13.6787 18.3756 13.5626C18.3756 13.4464 18.3295 13.335 18.2473 13.2528L17.3723 12.3778Z" fill="#FF6DC6"/>
<path d="M22.6223 10.3723C22.7045 10.2902 22.7506 10.1787 22.7506 10.0626C22.7506 9.94639 22.7045 9.83496 22.6223 9.75281C22.5402 9.67066 22.4287 9.62451 22.3126 9.62451C22.1964 9.62451 22.085 9.67066 22.0028 9.75281L21.1278 10.6278C21.0457 10.71 20.9995 10.8214 20.9995 10.9376C20.9995 11.0537 21.0457 11.1652 21.1278 11.2473C21.21 11.3295 21.3214 11.3756 21.4376 11.3756C21.5537 11.3756 21.6652 11.3295 21.7473 11.2473L22.6223 10.3723ZM10.3723 12.9973C10.4545 12.9152 10.5006 12.8037 10.5006 12.6876C10.5006 12.5714 10.4545 12.46 10.3723 12.3778C10.2902 12.2957 10.1787 12.2495 10.0626 12.2495C9.94639 12.2495 9.83496 12.2957 9.75281 12.3778L8.87781 13.2528C8.79566 13.335 8.74951 13.4464 8.74951 13.5626C8.74951 13.6787 8.79566 13.7902 8.87781 13.8723C8.95996 13.9545 9.07139 14.0006 9.18756 14.0006C9.30374 14.0006 9.41516 13.9545 9.49731 13.8723L10.3723 12.9973Z" fill="#FF822D"/>
<path d="M13.2528 9.7528C13.2934 9.71206 13.3417 9.67973 13.3949 9.65768C13.448 9.63562 13.505 9.62427 13.5625 9.62427C13.6201 9.62427 13.6771 9.63562 13.7302 9.65768C13.7834 9.67973 13.8317 9.71206 13.8723 9.7528L14.7473 10.6278C14.8295 10.71 14.8756 10.8214 14.8756 10.9375C14.8756 11.0537 14.8295 11.1651 14.7473 11.2473C14.6651 11.3295 14.5537 11.3756 14.4375 11.3756C14.3214 11.3756 14.21 11.3295 14.1278 11.2473L13.2528 10.3723C13.2121 10.3317 13.1797 10.2834 13.1577 10.2302C13.1356 10.1771 13.1243 10.1201 13.1243 10.0625C13.1243 10.005 13.1356 9.94802 13.1577 9.89487C13.1797 9.84172 13.2121 9.79344 13.2528 9.7528Z" fill="#00A6ED"/>
</svg>
