<svg width="29" height="29" viewBox="0 0 29 29" fill="none" xmlns="http://www.w3.org/2000/svg">
<path d="M6.11072 14.5L6.12315 19.7138C6.12315 19.9379 6.19583 20.1559 6.33029 20.3352L6.33236 20.3373L6.33443 20.3394L6.33857 20.3456L6.34893 20.358L6.38208 20.3994L6.48565 20.5237C6.57541 20.6259 6.70315 20.7578 6.86886 20.9194C7.20443 21.2384 7.69743 21.6526 8.3665 22.0649C9.70879 22.8914 11.7305 23.6889 14.4979 23.6889C17.2674 23.6889 19.2912 22.8893 20.6376 22.0649C21.3067 21.6547 21.8018 21.2404 22.1374 20.9214C22.3109 20.757 22.4748 20.5827 22.6283 20.3994L22.6594 20.3601L22.6697 20.3476L22.6739 20.3414C22.6739 20.3414 22.678 20.3373 21.8536 19.7117L22.678 20.3373C22.8141 20.1571 22.8875 19.9375 22.8872 19.7117V14.5L15.9396 17.5098C15.4849 17.7067 14.9946 17.8084 14.499 17.8084C14.0034 17.8084 13.5131 17.7067 13.0583 17.5098L6.11072 14.5Z" fill="#B3B5F4"/>
<path fill-rule="evenodd" clip-rule="evenodd" d="M3.51106 8.42871C4.08277 8.42871 4.54677 9.00871 4.54677 9.72335V23.9955C4.54677 24.7122 4.08277 25.2922 3.51106 25.2922C2.93934 25.2922 2.47534 24.7122 2.47534 23.9955V9.72335C2.47534 9.00871 2.93934 8.42871 3.51106 8.42871Z" fill="#6467B2"/>
<path fill-rule="evenodd" clip-rule="evenodd" d="M3.51315 22.7816C3.16744 22.7677 2.82248 22.8238 2.49898 22.9466C2.17548 23.0693 1.88011 23.2561 1.6306 23.4958C1.38108 23.7355 1.18256 24.0231 1.04695 24.3414C0.911343 24.6597 0.841441 25.0021 0.841441 25.3481C0.841441 25.6941 0.911343 26.0365 1.04695 26.3549C1.18256 26.6732 1.38108 26.9608 1.6306 27.2005C1.88011 27.4402 2.17548 27.627 2.49898 27.7497C2.82248 27.8724 3.16744 27.9285 3.51315 27.9146C4.17598 27.888 4.80281 27.6059 5.26237 27.1275C5.72193 26.6491 5.97858 26.0115 5.97858 25.3481C5.97858 24.6848 5.72193 24.0471 5.26237 23.5687C4.80281 23.0903 4.17598 22.8083 3.51315 22.7816ZM14.9122 1.84777C14.7821 1.79133 14.6418 1.76221 14.5 1.76221C14.3582 1.76221 14.2179 1.79133 14.0878 1.84777L0.623505 7.68091C0.437901 7.7611 0.279823 7.89385 0.168768 8.0628C0.057712 8.23175 -0.00146484 8.42952 -0.00146484 8.6317C-0.00146484 8.83388 0.057712 9.03165 0.168768 9.2006C0.279823 9.36955 0.437901 9.5023 0.623505 9.58249L14.0878 15.4156C14.2179 15.4721 14.3582 15.5012 14.5 15.5012C14.6418 15.5012 14.7821 15.4721 14.9122 15.4156L28.3765 9.58249C28.5621 9.5023 28.7202 9.36955 28.8312 9.2006C28.9423 9.03165 29.0015 8.83388 29.0015 8.6317C29.0015 8.42952 28.9423 8.23175 28.8312 8.0628C28.7202 7.89385 28.5621 7.7611 28.3765 7.68091L14.9122 1.84777Z" fill="#B3B5F4"/>
<path fill-rule="evenodd" clip-rule="evenodd" d="M6.11072 11.9604L14.0878 15.4156C14.2179 15.472 14.3582 15.5012 14.5 15.5012C14.6418 15.5012 14.7821 15.472 14.9122 15.4156L22.8872 11.9604V19.0986V14.5L15.9396 17.5098C15.4849 17.7068 14.9946 17.8084 14.499 17.8084C14.0034 17.8084 13.5131 17.7068 13.0583 17.5098L6.11072 14.5V11.9604ZM6.11072 14.5L6.12107 19.0986H6.11279L6.11072 14.5Z" fill="#6467B2"/>
</svg>
