<svg width="25" height="25" viewBox="0 0 25 25" fill="none" xmlns="http://www.w3.org/2000/svg">
<path d="M18.2539 7.70511C19.5645 7.4141 21.2715 6.11332 21.5313 5.47269C21.6836 5.09769 20.9238 4.51175 20.7207 4.27543C20.2559 3.73636 20.4434 3.47074 20.6231 2.82816C20.8281 2.09769 20.3418 1.29105 19.6524 0.974644C18.9629 0.658238 18.1387 0.757847 17.4453 1.06644C16.752 1.37503 16.1602 1.87113 15.5801 2.35941C15.1563 2.09183 14.4805 0.910191 13.3867 1.67777C12.6309 2.20707 12.5625 3.35941 12.6602 4.27933C12.8887 6.40238 13.4121 7.50394 14.3984 7.80082C15.6445 8.17582 17.0234 7.97855 18.2539 7.70511Z" fill="#FFCA28"/>
<path d="M20.3828 1.59766C20.2168 4.45898 17.4258 6.35742 16.1016 7.19336L16.961 7.93164C16.961 7.93164 17.5059 7.94336 18.252 7.70508C19.5313 7.29883 21.4004 6.15039 21.5293 5.47266C21.7188 4.48633 20.707 4.70117 20.4785 3.92187C20.3594 3.50977 21.0586 2.73047 20.3828 1.59766ZM15.582 2.36133C15.582 2.36133 15.084 1.85156 14.7149 1.61914C14.5313 1.96484 14.4004 2.33984 14.336 2.72656C14.2207 3.40625 14.336 4.37109 14.6074 5.08984C14.6504 5.20117 14.8106 5.18359 14.8281 5.06641C15.0625 3.52148 15.582 2.36133 15.582 2.36133Z" fill="#E2A610"/>
<path d="M12.1016 7.45302C12.1016 7.45302 6.0098 8.11122 3.26175 13.4003C0.513706 18.6893 2.84964 21.8964 5.3223 23.0643C7.79496 24.2323 14.0254 24.6444 18.0782 23.6835C22.1309 22.7226 23.1446 20.7304 22.9551 18.8065C22.6797 15.9979 20.0703 14.2714 20.0703 14.2714C20.0703 14.2714 20.1739 10.8026 17.4825 8.55068C15.0938 6.55068 12.1016 7.45302 12.1016 7.45302Z" fill="#FFCA28"/>
<path d="M14.6016 16.3536C13.2949 14.7051 11.7519 14.4844 11.2578 13.8926C10.9883 13.5704 10.8301 13.2442 10.8906 12.8399C10.9551 12.4102 11.4531 12.1133 11.8398 12.0411C12.291 11.9551 13.3672 12.0001 14.2715 12.8614C14.4863 13.0645 14.4082 13.3809 14.4023 13.6641C14.3867 14.2715 15.2558 14.8614 15.959 14.3536C16.664 13.8438 16.123 12.709 15.668 12.1583C15.3242 11.7422 14.0781 10.8262 12.5293 10.6817C12.0937 10.6407 10.3418 10.3809 9.33007 12.3047C9.03905 12.8575 8.93163 14.1934 10.4551 15.3223C10.7734 15.5587 12.4258 16.3985 12.8848 16.9434C13.6797 17.8868 13.1348 18.7169 12.5137 18.8262C10.8203 19.1231 9.86132 18.2071 9.68358 17.7051C9.55663 17.3477 9.68944 16.961 9.52538 16.6251C9.35741 16.2794 9.01366 16.1426 8.65038 16.2579C7.45897 16.6368 7.83788 17.9395 8.36522 18.6563C8.92968 19.4239 9.62303 19.8868 10.4023 20.1407C13.3105 21.088 14.709 19.5919 14.9531 18.4962C15.1328 17.6934 15.1133 16.9981 14.6016 16.3536Z" fill="#6B4B46"/>
<path d="M13.8984 9.56836C11.4238 14.8535 10.998 21.5273 10.998 21.5273" stroke="#6B4B46" stroke-width="0.625" stroke-miterlimit="10"/>
<path d="M15.9512 6.24229C17.5996 6.7794 17.9648 8.26963 17.8457 8.67588C17.7031 9.15245 15.8769 7.29698 13.1621 7.40831C12.2129 7.44737 12.4883 6.86534 12.9277 6.5294C13.5078 6.08604 14.4824 5.76573 15.9512 6.24229Z" fill="#6D4C41"/>
<path d="M15.9512 6.24229C17.5996 6.7794 17.9648 8.26963 17.8457 8.67588C17.7031 9.15245 15.8769 7.29698 13.1621 7.40831C12.2129 7.44737 12.4883 6.86534 12.9277 6.5294C13.5078 6.08604 14.4824 5.76573 15.9512 6.24229Z" fill="#6B4B46"/>
<path d="M18.8457 11.4961C19.0527 11.3535 19.7481 11.5996 19.9434 12.9609C20.0391 13.6269 20.0684 14.2715 20.0684 14.2715C20.0684 14.2715 19.2481 13.5351 18.9766 13.0175C18.6348 12.3632 18.502 11.7304 18.8457 11.4961Z" fill="#E2A610"/>
</svg>
