<svg width="26" height="27" viewBox="0 0 26 27" fill="none" xmlns="http://www.w3.org/2000/svg">
<path d="M16.834 2.00008C17.2798 1.99642 17.7166 2.1254 18.089 2.37065C18.4615 2.6159 18.7527 2.96637 18.9258 3.37759C19.099 3.78881 19.1462 4.24224 19.0615 4.68035C18.9767 5.11846 18.7639 5.52151 18.45 5.83835C18.1361 6.15519 17.7352 6.37154 17.2982 6.45995C16.8613 6.54837 16.4079 6.50485 15.9957 6.33494C15.5835 6.16502 15.231 5.87636 14.983 5.50558C14.7349 5.13481 14.6025 4.69862 14.6025 4.25238C14.6024 3.65821 14.837 3.08811 15.2549 2.66625C15.6729 2.24439 16.2405 2.00495 16.834 2.00008ZM22.9816 14.8431C21.8172 14.8424 20.6665 14.5928 19.6063 14.111C18.5461 13.6292 17.6009 12.9263 16.834 12.0493L16.1578 15.397L18.5061 17.6431V26H16.2561V19.3046L13.9201 17.077L12.8012 22L5 20.4185L5.43648 18.1723L10.9139 19.2862L12.7152 10.2524L10.7049 10.997V14.7939H8.45492V9.54467L14.2582 7.08314C14.5963 7.08314 14.8176 6.96621 15.1496 6.96621C15.538 6.97733 15.9172 7.08707 16.2517 7.28513C16.5861 7.4832 16.8647 7.76308 17.0615 8.09852L18.1803 9.88313C18.6702 10.7239 19.3748 11.419 20.2219 11.8971C21.0689 12.3751 22.0278 12.6188 23 12.6031L22.9816 14.8431Z" fill="#8A6BD1" stroke="#8A6BD1" stroke-linecap="round" stroke-linejoin="round"/>
</svg>
