<svg width="55" height="55" viewBox="0 0 55 55" fill="none" xmlns="http://www.w3.org/2000/svg">
<mask id="mask0_106_632" style="mask-type:alpha" maskUnits="userSpaceOnUse" x="0" y="0" width="55" height="55">
<rect x="0.571289" y="0.385498" width="54.0317" height="54.0317" fill="#D9D9D9"/>
</mask>
<g mask="url(#mask0_106_632)">
<path d="M22.0715 34.4932L41.1515 15.4132C41.6017 14.9629 42.127 14.7378 42.7274 14.7378C43.3277 14.7378 43.8531 14.9629 44.3033 15.4132C44.7536 15.8635 44.9787 16.3981 44.9787 17.0173C44.9787 17.6364 44.7536 18.1711 44.3033 18.6213L23.6474 39.3335C23.1972 39.7838 22.6719 40.0089 22.0715 40.0089C21.4711 40.0089 20.9458 39.7838 20.4956 39.3335L10.8149 29.6528C10.3646 29.2025 10.1489 28.6679 10.1676 28.0487C10.1864 27.4296 10.4209 26.8949 10.8712 26.4447C11.3214 25.9944 11.8561 25.7693 12.4752 25.7693C13.0943 25.7693 13.629 25.9944 14.0793 26.4447L22.0715 34.4932Z" fill="#454545"/>
</g>
</svg>
