<svg width="22" height="23" viewBox="0 0 22 23" fill="none" xmlns="http://www.w3.org/2000/svg">
<path fill-rule="evenodd" clip-rule="evenodd" d="M2.90771 5.24102C1.83337 6.31444 1.83337 8.04327 1.83337 11.5C1.83337 14.9568 1.83337 16.6856 2.90771 17.759C3.98204 18.8324 5.70996 18.8334 9.16671 18.8334H12.8334C16.2901 18.8334 18.019 18.8334 19.0924 17.759C20.1658 16.6847 20.1667 14.9568 20.1667 11.5C20.1667 8.04327 20.1667 6.31444 19.0924 5.24102C18.018 4.1676 16.2901 4.16669 12.8334 4.16669H9.16671C5.70996 4.16669 3.98112 4.16669 2.90771 5.24102ZM17.028 7.39335C17.1447 7.53341 17.2009 7.71405 17.1844 7.89557C17.1679 8.07709 17.08 8.24463 16.94 8.36135L14.927 10.0389C14.114 10.7172 13.4558 11.2654 12.8737 11.6394C12.2687 12.0289 11.6793 12.2746 11 12.2746C10.3208 12.2746 9.73137 12.028 9.12546 11.6394C8.54429 11.2654 7.88612 10.7163 7.07304 10.0398L5.06004 8.36227C4.91988 8.24557 4.83183 8.07798 4.81524 7.89636C4.79865 7.71474 4.85489 7.53397 4.97158 7.39381C5.08828 7.25366 5.25587 7.1656 5.43749 7.14901C5.61911 7.13242 5.79988 7.18866 5.94004 7.30535L7.92004 8.95444C8.77529 9.66669 9.36837 10.1599 9.87071 10.4825C10.3556 10.7942 10.6847 10.8996 11.001 10.8996C11.3172 10.8996 11.6463 10.7951 12.1312 10.4825C12.6326 10.1599 13.2266 9.66669 14.0819 8.95444L16.061 7.30444C16.2011 7.1879 16.3818 7.1318 16.5634 7.14847C16.7449 7.16515 16.9114 7.25323 17.028 7.39335Z" fill="#454545"/>
</svg>
